<?xml version="1.0" encoding="UTF-8" standalone="no"?>
<svg width="33px" height="34px" viewBox="0 0 33 34" version="1.1" xmlns="http://www.w3.org/2000/svg" xmlns:xlink="http://www.w3.org/1999/xlink" xmlns:sketch="http://www.bohemiancoding.com/sketch/ns">
    <!-- Generator: Sketch 3.3 (11970) - http://www.bohemiancoding.com/sketch -->
    <title>Hover Delete</title>
    <desc>Created with Sketch.</desc>
    <defs></defs>
    <g id="Page-1" stroke="none" stroke-width="1" fill="none" fill-rule="evenodd" sketch:type="MSPage">
        <g id="Hover-Delete" sketch:type="MSArtboardGroup" fill="#000000">
            <path d="M16.5,33 C25.336556,33 32.5,25.836556 32.5,17 C32.5,8.163444 25.336556,1 16.5,1 C7.663444,1 0.5,8.163444 0.5,17 C0.5,25.836556 7.663444,33 16.5,33 Z M21.9164952,20.1227634 C21.9164952,20.3608599 21.8331627,20.5632388 21.6664952,20.7299063 L20.4522095,21.944192 C20.285542,22.1108595 20.083163,22.194192 19.8450666,22.194192 C19.6069702,22.194192 19.4045913,22.1108595 19.2379238,21.944192 L16.6129238,19.319192 L13.9879238,21.944192 C13.8212563,22.1108595 13.6188773,22.194192 13.3807809,22.194192 C13.1426845,22.194192 12.9403055,22.1108595 12.773638,21.944192 L11.5593523,20.7299063 C11.3926848,20.5632388 11.3093523,20.3608599 11.3093523,20.1227634 C11.3093523,19.884667 11.3926848,19.6822881 11.5593523,19.5156206 L14.1843523,16.8906206 L11.5593523,14.2656206 C11.3926848,14.0989531 11.3093523,13.8965742 11.3093523,13.6584777 C11.3093523,13.4203813 11.3926848,13.2180024 11.5593523,13.0513349 L12.773638,11.8370492 C12.9403055,11.6703817 13.1426845,11.5870492 13.3807809,11.5870492 C13.6188773,11.5870492 13.8212563,11.6703817 13.9879238,11.8370492 L16.6129238,14.4620492 L19.2379238,11.8370492 C19.4045913,11.6703817 19.6069702,11.5870492 19.8450666,11.5870492 C20.083163,11.5870492 20.285542,11.6703817 20.4522095,11.8370492 L21.6664952,13.0513349 C21.8331627,13.2180024 21.9164952,13.4203813 21.9164952,13.6584777 C21.9164952,13.8965742 21.8331627,14.0989531 21.6664952,14.2656206 L19.0414952,16.8906206 L21.6664952,19.5156206 C21.8331627,19.6822881 21.9164952,19.884667 21.9164952,20.1227634 Z" id="Oval-21-Copy" sketch:type="MSShapeGroup"></path>
        </g>
    </g>
</svg>