<?xml version="1.0" encoding="UTF-8" standalone="no"?>
<svg width="33px" height="34px" viewBox="0 0 33 34" version="1.1" xmlns="http://www.w3.org/2000/svg" xmlns:xlink="http://www.w3.org/1999/xlink" xmlns:sketch="http://www.bohemiancoding.com/sketch/ns">
    <!-- Generator: Sketch 3.3 (11970) - http://www.bohemiancoding.com/sketch -->
    <title>Hover Add bookshelf</title>
    <desc>Created with Sketch.</desc>
    <defs></defs>
    <g id="Page-1" stroke="none" stroke-width="1" fill="none" fill-rule="evenodd" sketch:type="MSPage">
        <g id="Hover-Add-bookshelf" sketch:type="MSArtboardGroup" fill="#000000">
            <path d="M16.5,33 C25.336556,33 32.5,25.836556 32.5,17 C32.5,8.163444 25.336556,1 16.5,1 C7.663444,1 0.5,8.163444 0.5,17 C0.5,25.836556 7.663444,33 16.5,33 Z M22.6025947,14.0413139 C22.6025947,14.2418162 22.53242,14.4122405 22.3920684,14.5525921 L16.9484594,19.9962011 L15.925903,21.0187575 C15.7855514,21.1591091 15.6151271,21.2292838 15.4146248,21.2292838 C15.2141226,21.2292838 15.0436982,21.1591091 14.9033466,21.0187575 L13.8807902,19.9962011 L11.1589857,17.2743966 C11.0186341,17.134045 10.9484594,16.9636207 10.9484594,16.7631184 C10.9484594,16.5626162 11.0186341,16.3921918 11.1589857,16.2518402 L12.1815421,15.2292838 C12.3218937,15.0889323 12.4923181,15.0187575 12.6928203,15.0187575 C12.8933226,15.0187575 13.0637469,15.0889323 13.2040985,15.2292838 L15.4146248,17.447329 L20.3469557,12.5074793 C20.4873072,12.3671278 20.6577316,12.296953 20.8582338,12.296953 C21.0587361,12.296953 21.2291605,12.3671278 21.369512,12.5074793 L22.3920684,13.5300357 C22.53242,13.6703873 22.6025947,13.8408117 22.6025947,14.0413139 Z" id="Oval-11-Copy-4" sketch:type="MSShapeGroup"></path>
        </g>
    </g>
</svg>