<?xml version="1.0" encoding="UTF-8" standalone="no"?>
<svg width="33px" height="34px" viewBox="0 0 33 34" version="1.1" xmlns="http://www.w3.org/2000/svg" xmlns:xlink="http://www.w3.org/1999/xlink" xmlns:sketch="http://www.bohemiancoding.com/sketch/ns">
    <!-- Generator: Sketch 3.3 (11970) - http://www.bohemiancoding.com/sketch -->
    <title>Hover Add to read</title>
    <desc>Created with Sketch.</desc>
    <defs></defs>
    <g id="Page-1" stroke="none" stroke-width="1" fill="none" fill-rule="evenodd" sketch:type="MSPage">
        <g id="Hover-Add-to-read" sketch:type="MSArtboardGroup" fill="#000000">
            <path d="M16.5,33 C25.336556,33 32.5,25.836556 32.5,17 C32.5,8.163444 25.336556,1 16.5,1 C7.663444,1 0.5,8.163444 0.5,17 C0.5,25.836556 7.663444,33 16.5,33 Z M22.0711422,16.2781955 L22.0711422,17.7218045 C22.0711422,17.9223068 22.0009675,18.0927311 21.8606159,18.2330827 C21.7202643,18.3734343 21.54984,18.443609 21.3493377,18.443609 L18.2215182,18.443609 L18.2215182,21.5714286 C18.2215182,21.7719308 18.1513434,21.9423552 18.0109918,22.0827068 C17.8706403,22.2230583 17.7002159,22.2932331 17.4997136,22.2932331 L16.0561046,22.2932331 C15.8556024,22.2932331 15.685178,22.2230583 15.5448264,22.0827068 C15.4044748,21.9423552 15.3343001,21.7719308 15.3343001,21.5714286 L15.3343001,18.443609 L12.2064806,18.443609 C12.0059783,18.443609 11.8355539,18.3734343 11.6952024,18.2330827 C11.5548508,18.0927311 11.484676,17.9223068 11.484676,17.7218045 L11.484676,16.2781955 C11.484676,16.0776932 11.5548508,15.9072689 11.6952024,15.7669173 C11.8355539,15.6265657 12.0059783,15.556391 12.2064806,15.556391 L15.3343001,15.556391 L15.3343001,12.4285714 C15.3343001,12.2280692 15.4044748,12.0576448 15.5448264,11.9172932 C15.685178,11.7769417 15.8556024,11.7067669 16.0561046,11.7067669 L17.4997136,11.7067669 C17.7002159,11.7067669 17.8706403,11.7769417 18.0109918,11.9172932 C18.1513434,12.0576448 18.2215182,12.2280692 18.2215182,12.4285714 L18.2215182,15.556391 L21.3493377,15.556391 C21.54984,15.556391 21.7202643,15.6265657 21.8606159,15.7669173 C22.0009675,15.9072689 22.0711422,16.0776932 22.0711422,16.2781955 Z" id="Oval-11-Copy-4" sketch:type="MSShapeGroup"></path>
        </g>
    </g>
</svg>