<?xml version="1.0" encoding="UTF-8" standalone="no"?>
<svg width="33px" height="34px" viewBox="0 0 33 34" version="1.1" xmlns="http://www.w3.org/2000/svg" xmlns:xlink="http://www.w3.org/1999/xlink" xmlns:sketch="http://www.bohemiancoding.com/sketch/ns">
    <!-- Generator: Sketch 3.3 (11970) - http://www.bohemiancoding.com/sketch -->
    <title>Hover Buy</title>
    <desc>Created with Sketch.</desc>
    <defs></defs>
    <g id="Page-1" stroke="none" stroke-width="1" fill="none" fill-rule="evenodd" sketch:type="MSPage">
        <g id="Hover-Buy" sketch:type="MSArtboardGroup" fill="#000000">
            <path d="M16.5,33 C25.336556,33 32.5,25.836556 32.5,17 C32.5,8.163444 25.336556,1 16.5,1 C7.663444,1 0.5,8.163444 0.5,17 C0.5,25.836556 7.663444,33 16.5,33 Z M19.9285714,14.5714286 C19.9285714,14.4166659 19.8720244,14.2827387 19.7589286,14.1696429 C19.6458328,14.0565471 19.5119055,14 19.3571429,14 C19.2023802,14 19.0684529,14.0565471 18.9553571,14.1696429 L17.6428571,15.4732143 L17.6428571,12.8571429 C17.6428571,12.7023802 17.5863101,12.5684529 17.4732143,12.4553571 C17.3601185,12.3422613 17.2261912,12.2857143 17.0714286,12.2857143 C16.9166659,12.2857143 16.7827387,12.3422613 16.6696429,12.4553571 C16.5565471,12.5684529 16.5,12.7023802 16.5,12.8571429 L16.5,15.4732143 L15.1875,14.1696429 C15.0744042,14.0565471 14.940477,14 14.7857143,14 C14.6309516,14 14.4970244,14.0565471 14.3839286,14.1696429 C14.2708328,14.2827387 14.2142857,14.4166659 14.2142857,14.5714286 C14.2142857,14.7261912 14.2708328,14.8601185 14.3839286,14.9732143 L16.6696429,17.2589286 C16.7827387,17.3720244 16.9166659,17.4285714 17.0714286,17.4285714 C17.2261912,17.4285714 17.3601185,17.3720244 17.4732143,17.2589286 L19.7589286,14.9732143 C19.8720244,14.8601185 19.9285714,14.7261912 19.9285714,14.5714286 Z M14.2142857,22 C14.2142857,22.3154778 14.1026797,22.5848203 13.8794643,22.8080357 C13.6562489,23.0312511 13.3869063,23.1428571 13.0714286,23.1428571 C12.7559508,23.1428571 12.4866083,23.0312511 12.2633929,22.8080357 C12.0401775,22.5848203 11.9285714,22.3154778 11.9285714,22 C11.9285714,21.6845222 12.0401775,21.4151797 12.2633929,21.1919643 C12.4866083,20.9687489 12.7559508,20.8571429 13.0714286,20.8571429 C13.3869063,20.8571429 13.6562489,20.9687489 13.8794643,21.1919643 C14.1026797,21.4151797 14.2142857,21.6845222 14.2142857,22 L14.2142857,22 Z M22.2142857,22 C22.2142857,22.3154778 22.1026797,22.5848203 21.8794643,22.8080357 C21.6562489,23.0312511 21.3869063,23.1428571 21.0714286,23.1428571 C20.7559508,23.1428571 20.4866083,23.0312511 20.2633929,22.8080357 C20.0401775,22.5848203 19.9285714,22.3154778 19.9285714,22 C19.9285714,21.6845222 20.0401775,21.4151797 20.2633929,21.1919643 C20.4866083,20.9687489 20.7559508,20.8571429 21.0714286,20.8571429 C21.3869063,20.8571429 21.6562489,20.9687489 21.8794643,21.1919643 C22.1026797,21.4151797 22.2142857,21.6845222 22.2142857,22 L22.2142857,22 Z M23.3571429,12.2857143 L23.3571429,16.8571429 C23.3571429,17.0000007 23.3095243,17.1264875 23.2142857,17.2366071 C23.1190471,17.3467267 22.9970246,17.4107142 22.8482143,17.4285714 L13.5267857,18.5178571 C13.5327381,18.559524 13.5461308,18.6235115 13.5669643,18.7098214 C13.5877977,18.7961314 13.6056547,18.8749996 13.6205357,18.9464286 C13.6354167,19.0178575 13.6428571,19.083333 13.6428571,19.1428571 C13.6428571,19.2380957 13.5714293,19.42857 13.4285714,19.7142857 L21.6428571,19.7142857 C21.7976198,19.7142857 21.9315471,19.7708328 22.0446429,19.8839286 C22.1577387,19.9970244 22.2142857,20.1309516 22.2142857,20.2857143 C22.2142857,20.440477 22.1577387,20.5744042 22.0446429,20.6875 C21.9315471,20.8005958 21.7976198,20.8571429 21.6428571,20.8571429 L12.5,20.8571429 C12.3452373,20.8571429 12.2113101,20.8005958 12.0982143,20.6875 C11.9851185,20.5744042 11.9285714,20.440477 11.9285714,20.2857143 C11.9285714,20.2023805 11.9613092,20.0848222 12.0267857,19.9330357 C12.0922622,19.7812492 12.180059,19.6041677 12.2901786,19.4017857 C12.4002982,19.1994037 12.4613095,19.0863096 12.4732143,19.0625 L10.8928571,11.7142857 L9.07142857,11.7142857 C8.91666589,11.7142857 8.78273866,11.6577387 8.66964286,11.5446429 C8.55654705,11.4315471 8.5,11.2976198 8.5,11.1428571 C8.5,10.9880945 8.55654705,10.8541672 8.66964286,10.7410714 C8.78273866,10.6279756 8.91666589,10.5714286 9.07142857,10.5714286 L11.3571429,10.5714286 C11.4523814,10.5714286 11.537202,10.5907736 11.6116071,10.6294643 C11.6860123,10.668155 11.7455355,10.7142854 11.7901786,10.7678571 C11.8348217,10.8214288 11.8735117,10.8943448 11.90625,10.9866071 C11.9389883,11.0788695 11.9613095,11.1577378 11.9732143,11.2232143 C11.9851191,11.2886908 12.001488,11.3764875 12.0223214,11.4866071 C12.0431549,11.5967267 12.0565476,11.6726188 12.0625,11.7142857 L22.7857143,11.7142857 C22.940477,11.7142857 23.0744042,11.7708328 23.1875,11.8839286 C23.3005958,11.9970244 23.3571429,12.1309516 23.3571429,12.2857143 L23.3571429,12.2857143 Z" id="Oval-24-Copy" sketch:type="MSShapeGroup"></path>
        </g>
    </g>
</svg>